<mxfile host="app.diagrams.net" modified="2023-12-19T02:28:33.756Z" agent="Mozilla/5.0 (Windows NT 10.0; Win64; x64) AppleWebKit/537.36 (KHTML, like Gecko) Chrome/120.0.0.0 Safari/537.36" version="22.1.11" etag="yE-UkgV8Zd1fXhBt3vWl" type="github">
  <diagram name="Page-1" id="q76TUmOF0iu94TeKTR5O">
    <mxGraphModel>
      <root>
        <mxCell id="0" />
        <mxCell id="1" parent="0" />
      </root>
    </mxGraphModel>
  </diagram>
</mxfile>
